<svg width="1024" height="1024" viewBox="0 0 1024 1024" fill="none" xmlns="http://www.w3.org/2000/svg">
<rect width="1024" height="1024" rx="124" fill="white"/>
<path d="M156.043 854H289.344V607.418H414.832C487.423 607.418 541.46 585.934 576.941 542.965C612.423 499.996 630.164 444.169 630.164 375.484C630.164 306.799 612.098 250.973 575.965 208.004C540.158 164.71 487.26 143.062 417.273 143.062H156.043V854ZM289.344 513.668V242.672H387.488C427.853 242.997 456.01 256.344 471.961 282.711C488.237 308.753 496.375 340.491 496.375 377.926C496.375 415.686 488.237 447.75 471.961 474.117C456.01 500.484 427.853 513.668 387.488 513.668H289.344Z" fill="#1E1E1E"/>
<path d="M705.359 790.035C705.359 810.217 711.87 827.47 724.891 841.793C737.911 856.116 756.629 863.277 781.043 863.277C805.457 863.277 824.174 856.279 837.195 842.281C850.216 828.284 856.727 811.031 856.727 790.523C856.727 769.69 850.216 752.275 837.195 738.277C824.174 724.28 805.62 717.281 781.531 717.281C757.117 717.281 738.237 724.28 724.891 738.277C711.87 752.275 705.359 769.527 705.359 790.035Z" fill="#D92929"/>
</svg>
