<svg width="701" height="721" viewBox="0 0 701 721" fill="none" xmlns="http://www.w3.org/2000/svg">
<path d="M0.0429688 711H133.344V464.418H258.832C331.423 464.418 385.46 442.934 420.941 399.965C456.423 356.996 474.164 301.169 474.164 232.484C474.164 163.799 456.098 107.973 419.965 65.0039C384.158 21.7096 331.26 0.0625 261.273 0.0625H0.0429688V711ZM133.344 370.668V99.6719H231.488C271.853 99.9974 300.01 113.344 315.961 139.711C332.237 165.753 340.375 197.491 340.375 234.926C340.375 272.686 332.237 304.75 315.961 331.117C300.01 357.484 271.853 370.668 231.488 370.668H133.344Z" fill="#1E1E1E"/>
<path d="M549.359 647.035C549.359 667.217 555.87 684.47 568.891 698.793C581.911 713.116 600.629 720.277 625.043 720.277C649.457 720.277 668.174 713.279 681.195 699.281C694.216 685.284 700.727 668.031 700.727 647.523C700.727 626.69 694.216 609.275 681.195 595.277C668.174 581.28 649.62 574.281 625.531 574.281C601.117 574.281 582.237 581.28 568.891 595.277C555.87 609.275 549.359 626.527 549.359 647.035Z" fill="#D92929"/>
</svg>
