<svg width="1006" height="290" viewBox="0 0 1006 290" fill="none" xmlns="http://www.w3.org/2000/svg">
<path d="M0.3125 285H53.6328V186.367H103.828C132.865 186.367 154.479 177.773 168.672 160.586C182.865 143.398 189.961 121.068 189.961 93.5938C189.961 66.1198 182.734 43.7891 168.281 26.6016C153.958 9.28385 132.799 0.625 104.805 0.625H0.3125V285ZM53.6328 148.867V40.4688H92.8906C109.036 40.599 120.299 45.9375 126.68 56.4844C133.19 66.901 136.445 79.5964 136.445 94.5703C136.445 109.674 133.19 122.5 126.68 133.047C120.299 143.594 109.036 148.867 92.8906 148.867H53.6328ZM214.766 285H267.695V172.695C272.643 163.32 279.284 155.833 287.617 150.234C296.081 144.505 304.674 141.641 313.398 141.641C317.435 141.641 321.146 141.901 324.531 142.422C327.917 142.812 330.781 143.398 333.125 144.18V105.312C331.823 104.792 329.479 104.336 326.094 103.945C322.708 103.424 319.258 103.164 315.742 103.164C304.805 103.164 295.234 105.833 287.031 111.172C278.828 116.38 272.122 123.151 266.914 131.484H266.719V106.484H214.766V285ZM335.664 234.023C335.664 251.471 341.003 264.753 351.68 273.867C362.487 282.982 377.331 287.539 396.211 287.539C412.357 287.539 425.703 284.609 436.25 278.75C446.797 272.76 454.284 266.12 458.711 258.828C459.232 263.776 460.078 268.594 461.25 273.281C462.552 277.839 464.18 281.745 466.133 285H516.719V282.07C514.115 276.992 512.227 271.003 511.055 264.102C509.883 257.07 509.297 249.648 509.297 241.836V163.906C509.297 141.901 502.721 126.081 489.57 116.445C476.419 106.81 456.823 101.992 430.781 101.992C404.74 101.992 384.232 107.07 369.258 117.227C354.414 127.253 346.992 140.273 346.992 156.289V161.953L394.844 162.148V157.852C394.844 149.779 397.643 143.659 403.242 139.492C408.841 135.195 416.849 133.047 427.266 133.047C437.943 133.047 445.625 135.521 450.312 140.469C455.13 145.286 457.539 152.513 457.539 162.148V175.82H412.617C389.18 175.82 370.495 181.159 356.562 191.836C342.63 202.383 335.664 216.445 335.664 234.023ZM386.641 230.703C386.641 221.328 390.026 214.492 396.797 210.195C403.698 205.768 414.245 203.555 428.438 203.555H457.539V221.523C457.539 230.638 453.242 238.841 444.648 246.133C436.185 253.424 426.81 257.07 416.523 257.07C406.888 257.07 399.466 254.857 394.258 250.43C389.18 246.003 386.641 239.427 386.641 230.703ZM540.742 227.773V231.68C541.133 250.169 548.294 264.427 562.227 274.453C576.289 284.349 596.406 289.297 622.578 289.297C649.401 289.297 669.714 284.349 683.516 274.453C697.448 264.427 704.414 249.844 704.414 230.703C704.414 215.469 698.88 203.62 687.812 195.156C676.745 186.693 659.622 180.117 636.445 175.43C620.169 171.914 608.971 168.464 602.852 165.078C596.862 161.693 593.867 157.201 593.867 151.602C593.867 145.221 596.146 140.534 600.703 137.539C605.26 134.544 612.161 133.047 621.406 133.047C631.693 133.047 639.635 134.87 645.234 138.516C650.964 142.031 653.828 148.346 653.828 157.461V161.367H699.727V157.266C699.727 139.167 692.826 125.365 679.023 115.859C665.352 106.224 646.536 101.406 622.578 101.406C598.359 101.406 579.349 106.029 565.547 115.273C551.875 124.518 545.039 137.669 545.039 154.727C545.039 170.612 550.117 182.982 560.273 191.836C570.56 200.69 586.901 207.396 609.297 211.953C625.833 215.599 637.227 219.18 643.477 222.695C649.727 226.211 652.852 231.354 652.852 238.125C652.852 245.286 650.247 250.56 645.039 253.945C639.831 257.331 631.953 259.023 621.406 259.023C610.729 259.023 602.266 257.07 596.016 253.164C589.766 249.128 586.641 242.161 586.641 232.266V228.164L540.742 227.773ZM734.688 285H786.25V167.227C789.635 159.674 794.518 153.49 800.898 148.672C807.279 143.854 814.505 141.445 822.578 141.445C832.083 141.445 839.44 144.049 844.648 149.258C849.857 154.336 852.461 163.06 852.461 175.43V285H904.219V166.641C904.219 143.594 898.75 127.057 887.812 117.031C877.005 107.005 862.617 101.992 844.648 101.992C830.586 101.992 818.477 104.596 808.32 109.805C798.294 114.883 790.938 121.784 786.25 130.508V0.625H734.688V285Z" fill="black"/>
<path d="M944.648 259.414C944.648 267.487 947.253 274.388 952.461 280.117C957.669 285.846 965.156 288.711 974.922 288.711C984.688 288.711 992.174 285.911 997.383 280.312C1002.59 274.714 1005.2 267.812 1005.2 259.609C1005.2 251.276 1002.59 244.31 997.383 238.711C992.174 233.112 984.753 230.312 975.117 230.312C965.352 230.312 957.799 233.112 952.461 238.711C947.253 244.31 944.648 251.211 944.648 259.414Z" fill="#CE453C"/>
</svg>
